<?xml version="1.0" standalone="no"?>
<!DOCTYPE svg PUBLIC "-//W3C//DTD SVG 20010904//EN"
 "http://www.w3.org/TR/2001/REC-SVG-20010904/DTD/svg10.dtd">
<svg version="1.0" xmlns="http://www.w3.org/2000/svg"
 width="640.000000pt" height="640.000000pt" viewBox="0 0 640.000000 640.000000"
 preserveAspectRatio="xMidYMid meet">
<metadata>
Created by potrace 1.14, written by Peter Selinger 2001-2017
</metadata>
<g transform="translate(0.000000,640.000000) scale(0.100000,-0.100000)"
fill="#000000" stroke="none">
<path d="M410 5642 l-45 -3 2 -117 c1 -64 2 -125 2 -134 1 -13 9 -18 30 -18
57 0 296 -56 341 -80 14 -7 27 -13 30 -13 34 0 166 -70 202 -109 39 -42 74
-104 87 -153 12 -49 24 -125 22 -145 0 -8 -1 -33 0 -55 0 -22 1 -47 0 -55 0
-8 0 -103 0 -210 0 -107 0 -202 0 -210 0 -8 0 -105 0 -215 1 -110 1 -207 0
-215 0 -8 -1 -33 0 -55 0 -22 1 -47 0 -55 0 -8 0 -103 0 -210 0 -107 0 -202 0
-210 0 -8 0 -105 0 -215 1 -110 1 -207 0 -215 0 -8 -1 -33 0 -55 0 -22 1 -47
0 -55 0 -8 0 -91 0 -185 1 -93 1 -177 0 -185 0 -8 -1 -33 0 -55 0 -22 0 -47 0
-55 0 -8 0 -55 0 -105 1 -49 1 -97 0 -105 0 -8 -1 -33 0 -55 0 -22 0 -47 0
-55 0 -8 0 -55 0 -105 1 -49 1 -97 0 -105 0 -8 -1 -33 0 -55 0 -22 0 -47 0
-55 0 -8 0 -55 0 -105 1 -49 1 -97 0 -105 0 -8 0 -33 0 -55 1 -22 1 -49 0 -60
0 -11 -2 -123 -4 -250 -4 -245 -6 -266 -39 -332 -65 -130 -190 -188 -448 -208
-141 -10 -185 -14 -205 -19 -19 -5 -20 -13 -19 -133 l1 -128 1105 -3 1105 -2
-1 129 c-1 71 -3 131 -6 134 -3 3 -30 7 -60 10 -30 3 -80 10 -110 16 -30 5
-71 12 -90 16 -182 32 -319 108 -380 208 -25 43 -37 87 -46 167 -3 30 -7 60
-9 67 -2 7 0 15 6 18 5 4 6 11 3 17 -7 11 -8 1804 -1 1815 4 6 2330 9 2475 4
l22 -1 0 -980 c0 -963 -3 -1061 -32 -1098 -6 -6 -7 -12 -4 -12 12 0 -27 -61
-59 -94 -83 -84 -175 -113 -419 -132 -43 -3 -86 -8 -95 -9 -9 -2 -36 -4 -61
-4 l-45 -1 2 -112 c1 -62 2 -123 2 -135 l1 -23 1103 0 1103 0 -1 129 c0 71 -2
131 -5 134 -3 3 -30 7 -60 10 -62 7 -92 11 -170 27 -30 6 -66 14 -80 16 -61
12 -176 57 -214 83 -101 70 -148 146 -161 262 -8 70 -9 3973 -1 4019 23 128
55 189 131 247 34 27 172 71 275 88 19 3 42 8 50 10 18 5 78 14 145 21 100 11
90 -5 91 138 0 70 -3 129 -8 132 -7 5 -1770 8 -2148 5 l-55 -1 2 -127 c1 -71
2 -131 2 -134 1 -3 27 -9 59 -12 88 -9 298 -63 359 -92 20 -10 41 -18 48 -19
7 -1 19 -7 26 -13 8 -6 23 -13 34 -17 59 -19 136 -119 165 -217 18 -60 19
-106 20 -908 l0 -846 -1244 0 c-685 1 -1248 4 -1252 7 -8 9 -7 1690 1 1742 15
89 44 161 82 200 32 33 122 86 158 92 6 1 37 9 70 17 84 22 210 46 275 53 55
6 90 10 101 13 3 0 5 60 5 131 -1 109 -3 130 -16 130 -72 3 -2116 4 -2150 2z"/>
</g>
</svg>
