<svg xmlns="http://www.w3.org/2000/svg" viewBox="0 0 1210 157"><path fill="url(#a)" d="m1204.29 101.84 2.36 28.84-81.94 6.87c-418 19.68-818.63 34.35-1012.5-10.73h-11l-16.74 7.06-.91-22h-4.31l-21.31 6.93 5.62-23-15.83.78 4.06-9.15-.13-2.75h-3.93L37.4 86.54 41.59 77l-1.83-2.22-12.69.65 6.41-16L4.05 55 0 46.39a118.43 118.43 0 0 0 28.77-26L32.7 9.25A113.589 113.589 0 0 0 70.23-36h97.56c-43.47 31.35-46.73 60.72-5.23 87.88 55.48 10.51 116 15.55 180.08 16.74 72.1-38.77 57.29-72.79 2.23-104.62H483.5l-.79 14.12c-38.12 39.46-27.28 69.61 26.81 91.55C648.17 71 777.75 70 891.14 65c51.2-29 64.49-62.14 24.58-101h111.43c-11.69 41.29-2.83 73.16 45.9 86.77 34.87 6.14 76.16 11.11 120.58 15.5 8 3.85 13.31 9.48 14.78 17.66a25.394 25.394 0 0 1 0 12.55l-4.12 5.36Z"/><path fill="#fff" d="M970.42 77.072c-1.728 1.56-3.792 4.248-6.192 8.064-2.376 3.816-4.26 7.08-5.652 9.792-1.368 2.712-2.46 4.956-3.276 6.732-1.128 2.52-1.98 3.78-2.556 3.78-.384 0-.576-.528-.576-1.584 0-.768.156-1.692.468-2.772.312-1.08.636-1.968.972-2.664l.468-1.044a12.427 12.427 0 0 0 1.224-5.436c0-2.616-.648-4.836-1.944-6.66a145.394 145.394 0 0 1-7.632 14.04c-.264.432-.564.9-.9 1.404a60.84 60.84 0 0 1-1.368 1.944c-.576.768-1.14 1.404-1.692 1.908s-1.02.756-1.404.756c-.216 0-.324-.132-.324-.396l.036-.324c.096-.912 1.608-3.936 4.536-9.072l6.84-12.096c-.912-.576-1.932-.864-3.06-.864-1.104 0-1.98.336-2.628 1.008-.624.672-.936 1.572-.936 2.7 0 .48.06.936.18 1.368.072.216.108.384.108.504 0 .216-.084.324-.252.324-.408 0-.876-.516-1.404-1.548-.528-1.032-.792-1.908-.792-2.628 0-1.008.348-1.788 1.044-2.34.72-.576 1.668-.864 2.844-.864 2.016 0 3.804.516 5.364 1.548l3.564-6.3c.24-.24.432-.36.576-.36.24 0 .36.216.36.648 0 1.272-.876 3.828-2.628 7.668 1.8 2.136 2.7 4.956 2.7 8.46.048.24.108.36.18.36s.144-.096.216-.288a182.612 182.612 0 0 0 3.708-7.056c1.392-2.808 2.916-5.088 4.572-6.84 1.68-1.776 3.372-2.664 5.076-2.664.36 0 .54.072.54.216 0 .072-.12.264-.36.576Zm-6.784 23.436c-2.808 2.64-4.608 3.96-5.4 3.96-.408 0-.612-.276-.612-.828 0-.552.216-1.356.648-2.412a27.84 27.84 0 0 1 1.296-2.772l.648-1.152c1.824-3.192 3.204-5.484 4.14-6.876.408-.6.924-1.104 1.548-1.512.648-.432 1.248-.648 1.8-.648.192 0 .288.084.288.252 0 .12-.084.348-.252.684-.288.528-.996 1.788-2.124 3.78a231.822 231.822 0 0 0-2.016 3.6c-.984 1.728-1.476 2.88-1.476 3.456 0 .216.072.324.216.324.24 0 1.008-.6 2.304-1.8 1.008-1.008 2.34-2.46 3.996-4.356.072-.072.132-.108.18-.108.048 0 .072.048.072.144 0 .456-.18.9-.54 1.332-1.776 1.968-3.348 3.612-4.716 4.932Zm4.788-14.292c-.6 0-.9-.36-.9-1.08 0-.672.252-1.344.756-2.016.504-.696 1.056-1.044 1.656-1.044.72 0 1.08.408 1.08 1.224 0 .672-.276 1.332-.828 1.98-.552.624-1.14.936-1.764.936Zm5.243 11.772c.096-.192.144-.324.144-.396l-.36.252a33.211 33.211 0 0 1-2.592 2.664c-.96.912-1.74 1.62-2.34 2.124l-.9.72c-.984.72-1.728 1.08-2.232 1.08-.48 0-.72-.348-.72-1.044 0-1.728.636-3.768 1.908-6.12a22.379 22.379 0 0 1 4.932-6.192c2.04-1.776 3.972-2.664 5.796-2.664.36 0 .66.048.9.144.264.072.444.144.54.216.12.072.192.108.216.108.048 0 .108-.036.18-.108l.54-.72c.24-.288.636-.672 1.188-1.152.552-.504.996-.756 1.332-.756.168 0 .252.12.252.36 0 .336-.168.84-.504 1.512-2.568 4.728-4.128 7.584-4.68 8.568-.192.36-.636 1.14-1.332 2.34l-1.44 2.52a93.983 93.983 0 0 0 3.744-3.168 136.528 136.528 0 0 0 3.708-4.068c.072-.072.132-.108.18-.108.048 0 .072.048.072.144 0 .456-.18.9-.54 1.332a312.315 312.315 0 0 1-2.736 2.952c-1.008 1.056-2.808 2.592-5.4 4.608l-.936 1.728c-4.632 8.52-7.824 14.064-9.576 16.632-.168.264-.384.576-.648.936-.264.384-.696.888-1.296 1.512-.6.648-1.08.972-1.44.972-.576 0-.864-.828-.864-2.484 0-2.448.876-5.112 2.628-7.992 1.848-3.048 4.728-6.18 8.64-9.396l3.636-7.056Zm4.788-8.388c.024-.024.036-.072.036-.144 0-.168-.192-.252-.576-.252-.96 0-2.196.744-3.708 2.232a26.419 26.419 0 0 0-3.924 4.896c-1.104 1.776-1.656 3.084-1.656 3.924 0 .336.144.504.432.504.264 0 .6-.168 1.008-.504.36-.312.84-.744 1.44-1.296.624-.576 1.68-1.788 3.168-3.636a35.19 35.19 0 0 0 3.78-5.724Zm-16.164 24.768c-.192.288-.42.66-.684 1.116-.264.48-.624 1.284-1.08 2.412-.456 1.152-.684 2.112-.684 2.88 0 .408.072.612.216.612.12 0 .3-.12.54-.36.24-.216.444-.444.612-.684l.252-.36c2.016-3.12 4.56-7.524 7.632-13.212-3.024 2.616-5.292 5.148-6.804 7.596Zm29.2-15.804c1.008-1.008 2.34-2.46 3.996-4.356.072-.072.132-.108.18-.108.048 0 .072.048.072.144 0 .456-.18.9-.54 1.332-1.776 1.968-3.348 3.612-4.716 4.932-2.88 2.664-4.776 3.996-5.688 3.996-.36 0-.54-.228-.54-.684 0-.864.492-2.172 1.476-3.924a96.166 96.166 0 0 1 2.916-4.932c.984-1.536 1.476-2.436 1.476-2.7 0-.144-.072-.216-.216-.216-.576 0-1.668.888-3.276 2.664-1.608 1.776-2.964 3.372-4.068 4.788-1.224 1.536-2.292 2.76-3.204 3.672-.888.912-1.476 1.428-1.764 1.548l-.468.216c-.216 0-.324-.12-.324-.36 0-.384.216-1.068.648-2.052a34.78 34.78 0 0 1 1.296-2.664l.648-1.188 5.616-10.08c4.416-7.8 7.896-13.344 10.44-16.632.72-.96 1.224-1.44 1.512-1.44.144 0 .216.096.216.288 0 .504-.384 1.536-1.152 3.096a5148.75 5148.75 0 0 1-7.848 14.112c-.888 1.584-1.692 3-2.412 4.248a154.066 154.066 0 0 1-1.548 2.592c-.288.504-.54.948-.756 1.332-.216.36-.384.672-.504.936a.68.68 0 0 0-.036.216c0 .12.024.18.072.18.048 0 .144-.072.288-.216 5.376-5.976 8.904-8.964 10.584-8.964.336 0 .504.168.504.504 0 .096-.048.312-.144.648-.096.312-.372.96-.828 1.944-.456.984-1.056 2.076-1.8 3.276-.456.672-1.032 1.632-1.728 2.88s-1.044 2.064-1.044 2.448c0 .216.108.324.324.324a.83.83 0 0 0 .288-.072c.144-.072.3-.18.468-.324.168-.144.312-.276.432-.396.144-.12.336-.288.576-.504.264-.24.456-.408.576-.504Zm11.049-12.096c1.71-1.2 3.23-2.556 4.57-4.068 1.37-1.536 2.4-2.94 3.1-4.212.72-1.296 1.26-2.412 1.62-3.348.36-.936.54-1.608.54-2.016 0-.24-.08-.36-.25-.36-.34 0-.75.24-1.23.72-.91.912-1.94 2.232-3.09 3.96-1.15 1.728-2.09 3.216-2.81 4.464-.7 1.224-1.61 2.868-2.74 4.932.1 0 .2-.024.29-.072Zm-3.85 12.096c1.008-1.008 2.34-2.46 4-4.356.07-.072.13-.108.18-.108.04 0 .07.048.07.144 0 .456-.18.9-.54 1.332-1.78 1.968-3.35 3.612-4.718 4.932-3 2.832-4.908 4.248-5.724 4.248-.36 0-.54-.252-.54-.756 0-.264.036-.552.108-.864.048-.312.144-.648.288-1.008.144-.384.264-.696.36-.936.12-.264.276-.624.468-1.08.216-.48.36-.804.432-.972.672-1.512 2.736-5.496 6.192-11.952 4.724-8.616 9.074-13.908 13.034-15.876a3.81 3.81 0 0 1 1.73-.432c.67 0 1 .312 1 .936 0 1.44-.49 3.024-1.47 4.752a23.842 23.842 0 0 1-3.6 4.716c-1.42 1.44-2.81 2.7-4.18 3.78-1.34 1.08-2.51 1.896-3.49 2.448a.848.848 0 0 0-.4.324 80.17 80.17 0 0 0-3.092 5.508c-1.008 1.944-1.764 3.48-2.268 4.608l-.72 1.656c-.12.36-.18.6-.18.72 0 .216.084.324.252.324.48 0 1.416-.696 2.808-2.088Zm11.06 3.168c-1.99 1.824-3.36 2.736-4.1 2.736-.34 0-.51-.192-.51-.576 0-.48.21-1.212.61-2.196.44-.984.87-1.848 1.3-2.592l.65-1.116c.09-.168.14-.276.14-.324 0-.048-.02-.072-.07-.072-.1 0-.28.132-.54.396a62.82 62.82 0 0 1-2.48 2.556c-.92.888-1.66 1.584-2.24 2.088l-.82.72c-.94.72-1.66 1.08-2.165 1.08-.528 0-.792-.408-.792-1.224 0-.408.12-1.032.36-1.872.216-.84.384-1.404.504-1.692a24.265 24.265 0 0 1 2.053-3.924 24.345 24.345 0 0 1 2.95-3.636 13.623 13.623 0 0 1 3.93-2.844c1.51-.72 3.07-1.08 4.68-1.08 1.34 0 2.01.204 2.01.612 0 .24-.3.36-.9.36-2.21 0-4.28.948-6.23 2.844a23.298 23.298 0 0 0-4.68 6.48c-.33.672-.5 1.236-.5 1.692 0 .264.08.396.25.396.29 0 .66-.204 1.12-.612.29-.264.67-.612 1.15-1.044.5-.432 1.31-1.26 2.41-2.484 1.11-1.224 1.98-2.364 2.63-3.42.1-.192.24-.42.43-.684.22-.264.61-.612 1.19-1.044.58-.456 1.15-.684 1.73-.684.31 0 .47.084.47.252 0 .048-.04.132-.11.252-.1.192-.37.672-.83 1.44-.43.768-.84 1.5-1.22 2.196-.39.672-.8 1.416-1.23 2.232-.43.792-.78 1.476-1.04 2.052-.24.576-.36.96-.36 1.152 0 .144.06.216.18.216.36 0 1.23-.696 2.63-2.088 1.05-1.104 2.29-2.46 3.7-4.068.08-.072.14-.108.18-.108.05 0 .08.048.08.144 0 .456-.18.9-.54 1.332-2.36 2.616-4.35 4.668-5.98 6.156Zm14.91-1.224c-2.81 2.64-4.66 3.96-5.55 3.96-.4 0-.61-.216-.61-.648 0-.264.06-.588.18-.972.12-.408.27-.804.43-1.188.2-.408.38-.78.54-1.116.17-.336.34-.648.51-.936.17-.288.25-.444.25-.468.36-.648.9-1.548 1.62-2.7.72-1.176 1.3-2.136 1.73-2.88.43-.768.65-1.236.65-1.404 0-.12-.06-.18-.18-.18l-.51.18c-1.1.792-2.42 2.028-3.96 3.708-1.53 1.656-2.79 3.12-3.78 4.392l-1.47 1.872c-.32.456-.59.828-.83 1.116-.24.288-.59.564-1.05.828-.43.288-.87.432-1.33.432-.33 0-.5-.096-.5-.288 0-.192.23-.744.68-1.656.46-.936.91-1.824 1.37-2.664l.68-1.224 3.53-6.192c.36-.6.65-1.056.87-1.368.24-.336.56-.744.97-1.224.41-.504.84-.876 1.29-1.116.48-.24.99-.384 1.52-.432.19 0 .28.084.28.252 0 .144-.03.264-.1.36-.56.864-1.41 2.292-2.56 4.284-1.13 1.992-1.85 3.288-2.16 3.888-.07.144-.11.252-.11.324 0 .048.03.072.07.072.05 0 .17-.072.36-.216.46-.528 1.05-1.188 1.77-1.98.74-.792 1.99-1.98 3.74-3.564 1.75-1.608 3.19-2.688 4.32-3.24.27-.12.52-.18.76-.18.33 0 .5.192.5.576-.19 1.128-1.11 3.06-2.77 5.796-1.82 3-2.74 4.776-2.74 5.328 0 .192.09.288.26.288a.86.86 0 0 0 .39-.108c.17-.096.35-.216.54-.36.19-.168.35-.312.47-.432.14-.12.32-.276.54-.468.22-.216.35-.348.4-.396 1-1.008 2.34-2.46 3.99-4.356.07-.072.13-.108.18-.108.05 0 .07.048.07.144 0 .456-.18.9-.54 1.332-1.77 1.968-3.34 3.612-4.71 4.932Zm6.4-.36c.15-.12.34-.288.58-.504.26-.24.75-.72 1.47-1.44.72-.744 1.41-1.5 2.06-2.268.67-.792 1.4-1.764 2.19-2.916a27.866 27.866 0 0 0 2.09-3.42.39.39 0 0 0 .04-.144l-.04-.108a1.15 1.15 0 0 0-.58-.144c-1.03 0-2.31.768-3.85 2.304a27.366 27.366 0 0 0-3.89 4.968c-1.05 1.752-1.58 3.012-1.58 3.78 0 .336.13.504.4.504.28 0 .66-.204 1.11-.612Zm7.96-1.584c1.01-1.008 2.34-2.46 3.99-4.356.08-.072.14-.108.18-.108.05 0 .08.048.08.144 0 .456-.18.9-.54 1.332-1.78 1.968-3.35 3.612-4.72 4.932-2.83 2.64-4.69 3.96-5.58 3.96-.34 0-.5-.18-.5-.54 0-.456.22-1.176.68-2.16.46-.984.92-1.86 1.4-2.628l.69-1.152c.09-.12.14-.228.14-.324 0-.048-.02-.072-.07-.072-.1 0-.23.084-.4.252-.74.864-1.59 1.752-2.55 2.664-.96.912-1.74 1.62-2.34 2.124l-.87.72c-.96.744-1.68 1.116-2.16 1.116l-.14-.036c-.41-.024-.61-.384-.61-1.08 0-1.824.63-3.9 1.91-6.228a21.522 21.522 0 0 1 5-6.12c2.04-1.728 4.01-2.592 5.9-2.592.2 0 .38.024.54.072.17.024.29.048.36.072.1.024.18.06.26.108l.1.036c.05 0 .11-.036.18-.108 4.44-8.016 7.85-13.548 10.23-16.596.72-.96 1.23-1.44 1.55-1.44.12 0 .18.096.18.288 0 .504-.39 1.536-1.16 3.096-3.69 6.768-6.28 11.46-7.77 14.076-2.67 4.752-4.29 7.608-4.86 8.568-1.18 2.016-1.77 3.24-1.77 3.672 0 .168.08.252.22.252.12 0 .25-.036.4-.108.16-.096.34-.228.54-.396.19-.168.36-.324.5-.468.17-.144.36-.324.58-.54.21-.216.36-.36.43-.432Zm5.82 2.952c.39-.96.93-2.076 1.62-3.348a56.024 56.024 0 0 1 1.87-3.096l.8-1.152c.33-.48.67-.72 1-.72.27 0 .4.132.4.396l-.11.36c-.86 2.184-1.29 4.068-1.29 5.652 0 1.272.27 2.316.82 3.132.58.792 1.47 1.188 2.67 1.188 1.8 0 3.25-.78 4.35-2.34 1.11-1.584 1.66-3.288 1.66-5.112 0-1.56-.54-3.78-1.62-6.66-1.06-2.904-1.58-4.872-1.58-5.904 0-2.232.94-4.02 2.84-5.364 1.92-1.368 4.02-2.052 6.3-2.052.41 0 .8.024 1.19.072.41.048.85.132 1.33.252.48.096.86.264 1.15.504.29.24.43.54.43.9 0 .48-.33 1.296-1 2.448-.68 1.152-1.24 2.028-1.7 2.628-.16.12-.31.18-.43.18-.17 0-.25-.144-.25-.432 0-.672.07-1.584.22-2.736 0-1.872-.72-2.808-2.16-2.808-1.23 0-2.27.42-3.14 1.26-.84.84-1.26 1.86-1.26 3.06 0 1.584.56 3.792 1.66 6.624 1.13 2.832 1.69 5.016 1.69 6.552 0 2.88-1.14 5.256-3.42 7.128-2.25 1.848-4.8 2.772-7.63 2.772-.48 0-1.06-.048-1.73-.144-.67-.096-1.38-.252-2.12-.468-.75-.192-1.37-.48-1.87-.864-.53-.408-.8-.864-.8-1.368 0-.192.04-.372.11-.54Zm29.75-2.952c1.01-1.008 2.34-2.46 3.99-4.356.08-.072.14-.108.18-.108.05 0 .08.048.08.144 0 .456-.18.9-.54 1.332-1.78 1.968-3.35 3.612-4.72 4.932-.12.12-.35.348-.68.684-.32.312-.57.564-.76.756-.19.168-.44.408-.76.72-.31.288-.57.516-.79.684-.21.168-.45.348-.72.54-.24.168-.47.288-.68.36-.19.096-.36.144-.51.144-.43 0-.64-.396-.64-1.188 0-.864.18-1.968.54-3.312.38-1.344.76-2.472 1.15-3.384l.54-1.368a.372.372 0 0 0 .03-.144c0-.048-.02-.072-.07-.072l-.21.072c-.92.912-1.86 1.944-2.85 3.096-.96 1.128-1.69 2.028-2.19 2.7l-.76 1.008a8.745 8.745 0 0 1-1.69 1.944c-.63.552-1.11.828-1.44.828-.24 0-.36-.156-.36-.468 0-.456.21-1.176.65-2.16.43-.984.86-1.86 1.29-2.628l.65-1.152 5.26-9.396c4.72-8.4 8.17-13.968 10.33-16.704.72-.936 1.22-1.404 1.51-1.404.12 0 .18.096.18.288 0 .528-.38 1.56-1.15 3.096-3.77 6.816-6.39 11.532-7.85 14.148-2.86 5.112-4.57 8.148-5.15 9.108v.144c0 .072.03.108.07.108.05 0 .12-.048.22-.144l1.69-1.836a160.98 160.98 0 0 1 3.13-3.24c.94-.936 1.98-1.848 3.14-2.736 1.15-.912 2-1.368 2.55-1.368.39 0 .58.288.58.864 0 .336-.12.852-.36 1.548-.24.696-.48 1.044-.72 1.044-.1 0-.18-.12-.25-.36-.12-.6-.47-.9-1.05-.9-.81 0-1.57.78-2.27 2.34-.69 1.536-1.18 3.036-1.47 4.5-.29 1.44-.43 2.412-.43 2.916 0 .528.13.792.39.792.22 0 .49-.132.83-.396.36-.288.77-.672 1.22-1.152.48-.48.77-.768.87-.864Zm11.06 3.168c-1.99 1.824-3.36 2.736-4.1 2.736-.34 0-.51-.192-.51-.576 0-.48.21-1.212.62-2.196.43-.984.86-1.848 1.29-2.592l.65-1.116c.1-.168.14-.276.14-.324 0-.048-.02-.072-.07-.072-.09 0-.27.132-.54.396a62.82 62.82 0 0 1-2.48 2.556c-.91.888-1.66 1.584-2.23 2.088l-.83.72c-.94.72-1.66 1.08-2.16 1.08-.53 0-.79-.408-.79-1.224 0-.408.12-1.032.36-1.872.21-.84.38-1.404.5-1.692a24.815 24.815 0 0 1 2.05-3.924 24.988 24.988 0 0 1 2.95-3.636 13.623 13.623 0 0 1 3.93-2.844c1.51-.72 3.07-1.08 4.68-1.08 1.34 0 2.01.204 2.01.612 0 .24-.3.36-.9.36-2.2 0-4.28.948-6.22 2.844a23.298 23.298 0 0 0-4.68 6.48c-.34.672-.51 1.236-.51 1.692 0 .264.09.396.25.396.29 0 .66-.204 1.12-.612.29-.264.67-.612 1.15-1.044.51-.432 1.31-1.26 2.41-2.484 1.11-1.224 1.98-2.364 2.63-3.42.1-.192.24-.42.43-.684.22-.264.62-.612 1.19-1.044.58-.456 1.15-.684 1.73-.684.31 0 .47.084.47.252 0 .048-.04.132-.11.252-.1.192-.37.672-.83 1.44-.43.768-.84 1.5-1.22 2.196-.39.672-.79 1.416-1.23 2.232-.43.792-.78 1.476-1.04 2.052-.24.576-.36.96-.36 1.152 0 .144.06.216.18.216.36 0 1.24-.696 2.63-2.088 1.05-1.104 2.29-2.46 3.71-4.068.07-.072.13-.108.18-.108.04 0 .07.048.07.144 0 .456-.18.9-.54 1.332-2.35 2.616-4.35 4.668-5.98 6.156Zm9.11-3.168c1.01-1.008 2.34-2.46 4-4.356.07-.072.13-.108.18-.108.05 0 .07.048.07.144 0 .456-.18.9-.54 1.332-1.77 1.968-3.35 3.612-4.71 4.932-2.88 2.784-4.79 4.176-5.73 4.176-.33 0-.5-.216-.5-.648 0-.504.19-1.26.57-2.268.39-1.008.77-1.896 1.16-2.664l.57-1.116a325.4 325.4 0 0 0 2.74-5.04c1.27-2.376 2.49-4.62 3.67-6.732 1.2-2.112 2.33-4.02 3.38-5.724h-2.84c-.24 0-.36-.06-.36-.18s.1-.24.29-.36c.19-.12.39-.18.61-.18.53 0 1.45-.012 2.77-.036 1.18-1.848 2.19-3.312 3.03-4.392.74-.936 1.26-1.404 1.54-1.404.17 0 .26.108.26.324 0 .504-.46 1.584-1.37 3.24l-1.23 2.232h3.71c.22 0 .33.06.33.18 0 .384-.35.576-1.05.576h-3.38c-5.55 10.512-8.46 16.02-8.75 16.524-1.01 1.848-1.51 3.048-1.51 3.6 0 .168.06.252.18.252.33 0 1.31-.768 2.91-2.304Zm10.5-6.768c.28-.6.43-1.128.43-1.584 0-.384-.12-.576-.36-.576-.15 0-.31.048-.51.144-.16.072-.3.156-.39.252l-.18.144c-.75.648-1.68 1.836-2.81 3.564-1.1 1.704-1.66 2.796-1.66 3.276 0 .096.03.144.08.144.14 0 .45-.12.93-.36.51-.24 1.21-.804 2.13-1.692.93-.888 1.71-1.992 2.34-3.312Zm-1.62 8.244c1.27-1.176 3.09-3.12 5.47-5.832.07-.072.13-.108.18-.108.05 0 .07.048.07.144 0 .456-.18.9-.54 1.332-1.78 1.968-3.35 3.612-4.72 4.932-1 1.008-2.2 1.98-3.6 2.916-1.39.912-2.54 1.368-3.45 1.368-1.11 0-1.66-.768-1.66-2.304 0-2.544.94-5.208 2.81-7.992 1.9-2.784 4.08-4.668 6.55-5.652 1.03-.432 1.97-.648 2.81-.648.94 0 1.4.372 1.4 1.116 0 1.392-.98 2.988-2.95 4.788a20.668 20.668 0 0 1-6.62 4.104c-.1.024-.18.108-.25.252-.36.984-.54 1.86-.54 2.628 0 .864.32 1.296.97 1.296 1.03 0 2.39-.78 4.07-2.34Zm7.3 1.476c.38-.96.92-2.076 1.62-3.348.72-1.272 1.34-2.304 1.87-3.096l.79-1.152c.34-.48.67-.72 1.01-.72.26 0 .39.132.39.396l-.1.36c-.87 2.184-1.3 4.068-1.3 5.652 0 1.272.28 2.316.83 3.132.57.792 1.46 1.188 2.66 1.188 1.8 0 3.25-.78 4.36-2.34 1.1-1.584 1.65-3.288 1.65-5.112 0-1.56-.54-3.78-1.62-6.66-1.05-2.904-1.58-4.872-1.58-5.904 0-2.232.95-4.02 2.84-5.364 1.92-1.368 4.02-2.052 6.3-2.052.41 0 .81.024 1.19.072.41.048.85.132 1.33.252.48.096.87.264 1.16.504.28.24.43.54.43.9 0 .48-.34 1.296-1.01 2.448-.67 1.152-1.24 2.028-1.69 2.628-.17.12-.31.18-.43.18-.17 0-.26-.144-.26-.432 0-.672.08-1.584.22-2.736 0-1.872-.72-2.808-2.16-2.808-1.22 0-2.27.42-3.13 1.26-.84.84-1.26 1.86-1.26 3.06 0 1.584.55 3.792 1.65 6.624 1.13 2.832 1.7 5.016 1.7 6.552 0 2.88-1.14 5.256-3.42 7.128-2.26 1.848-4.8 2.772-7.64 2.772-.48 0-1.05-.048-1.72-.144-.68-.096-1.38-.252-2.13-.468-.74-.192-1.37-.48-1.87-.864-.53-.408-.79-.864-.79-1.368 0-.192.03-.372.11-.54Zm30.28-2.952c1.01-1.008 2.34-2.46 4-4.356.07-.072.13-.108.18-.108.05 0 .07.048.07.144 0 .456-.18.9-.54 1.332-1.78 1.968-3.35 3.612-4.72 4.932-2.88 2.664-4.77 3.996-5.68 3.996-.36 0-.54-.228-.54-.684 0-.864.49-2.172 1.47-3.924.99-1.776 1.96-3.42 2.92-4.932.98-1.536 1.47-2.436 1.47-2.7 0-.144-.07-.216-.21-.216-.58 0-1.67.888-3.28 2.664a88.635 88.635 0 0 0-4.07 4.788c-1.22 1.536-2.29 2.76-3.2 3.672-.89.912-1.48 1.428-1.76 1.548l-.47.216c-.22 0-.33-.12-.33-.36 0-.384.22-1.068.65-2.052.43-.984.87-1.872 1.3-2.664l.65-1.188 5.61-10.08c4.42-7.8 7.9-13.344 10.44-16.632.72-.96 1.23-1.44 1.51-1.44.15 0 .22.096.22.288 0 .504-.38 1.536-1.15 3.096-3.77 6.792-6.39 11.496-7.85 14.112-.89 1.584-1.69 3-2.41 4.248-.72 1.224-1.24 2.088-1.55 2.592-.29.504-.54.948-.76 1.332-.21.36-.38.672-.5.936a.822.822 0 0 0-.04.216c0 .12.03.18.08.18.04 0 .14-.072.28-.216 5.38-5.976 8.91-8.964 10.59-8.964.33 0 .5.168.5.504 0 .096-.05.312-.14.648-.1.312-.37.96-.83 1.944-.46.984-1.06 2.076-1.8 3.276-.46.672-1.03 1.632-1.73 2.88-.69 1.248-1.04 2.064-1.04 2.448 0 .216.11.324.32.324.07 0 .17-.024.29-.072.14-.072.3-.18.47-.324.17-.144.31-.276.43-.396.14-.12.34-.288.58-.504.26-.24.45-.408.57-.504Zm16.31-7.236c.21.048.32.12.32.216 0 .144-.09.312-.29.504-.26.264-.66.612-1.18 1.044-.51.432-.81.696-.9.792l-.51.684c-.5 1.416-1.28 2.892-2.34 4.428a17.165 17.165 0 0 1-3.81 3.996c-1.49 1.152-2.92 1.728-4.29 1.728-1.7 0-2.55-1.044-2.55-3.132 0-1.848.6-3.84 1.8-5.976 1.2-2.16 2.74-3.996 4.64-5.508 1.92-1.536 3.8-2.304 5.65-2.304 1.35 0 2.02.528 2.02 1.584 0 .576-.29 1.356-.87 2.34-.02.024-.03.06-.03.108s.02.072.07.072c.89-.36 1.64-.552 2.27-.576Zm-3.42.864c.19-.84.29-1.488.29-1.944 0-1.008-.34-1.512-1.01-1.512-.94 0-2.1.864-3.49 2.592-1.4 1.728-2.6 3.672-3.6 5.832-.99 2.16-1.48 3.864-1.48 5.112 0 .912.32 1.368.97 1.368 1.01 0 2.21-1.008 3.6-3.024 1.42-2.016 2.27-4.044 2.56-6.084-.03-.048-.04-.12-.04-.216 0-.696.63-1.32 1.87-1.872.2-.072.3-.156.33-.252Zm1.53 10.512c-.12.216-.18.432-.18.648 0 .432.34.648 1.01.648.7 0 1.43-.312 2.2-.936.77-.648 1.45-1.416 2.05-2.304a38.01 38.01 0 0 0 1.69-2.7c.53-.912.93-1.692 1.19-2.34l.43-.936c.63-1.56.94-2.7.94-3.42 0-.504-.18-.756-.54-.756-.22 0-.43.072-.65.216-.77.48-1.84 1.716-3.2 3.708a65.94 65.94 0 0 0-3.46 5.58l-1.48 2.592Zm7.67-16.632c.17 0 .25.096.25.288 0 .336-.2.984-.61 1.944-.38.96-.77 1.824-1.15 2.592l-.61 1.188a.263.263 0 0 0-.04.144c0 .072.03.108.07.108.05 0 .12-.048.22-.144.07-.12.18-.264.32-.432.15-.168.44-.48.87-.936.43-.48.84-.888 1.22-1.224.41-.36.87-.684 1.37-.972.53-.288 1-.432 1.4-.432.94 0 1.41.768 1.41 2.304 0 1.248-.37 2.784-1.12 4.608 0 .048-.14.384-.43 1.008-.26.624-.7 1.428-1.3 2.412-.6.984-1.28 1.944-2.05 2.88-.77.912-1.73 1.704-2.88 2.376-1.13.672-2.29 1.008-3.49 1.008-.34 0-.65-.048-.94-.144-.28-.072-.5-.156-.64-.252-.15-.072-.24-.108-.29-.108l-.25.144c-.65.96-1.68 2.736-3.1 5.328-1.42 2.592-2.54 4.764-3.38 6.516-.12.216-.28.504-.47.864-.19.36-.57 1.008-1.12 1.944-.55.936-1.07 1.752-1.55 2.448-.5.72-1.04 1.368-1.62 1.944-.6.6-1.1.9-1.51.9-.24 0-.36-.108-.36-.324 0-.648.71-2.316 2.13-5.004 1.39-2.664 2.79-5.184 4.21-7.56l2.12-3.528c3.48-6.072 6.19-10.896 8.14-14.472a40.902 40.902 0 0 1 .79-1.44c.29-.528.56-1.02.83-1.476.26-.48.57-.996.93-1.548.36-.576.7-1.068 1.01-1.476.31-.432.61-.78.9-1.044.29-.288.53-.432.72-.432Z"/><defs><linearGradient id="a" x1="-329" x2="1477" y1="80" y2="104" gradientUnits="userSpaceOnUse"><stop stop-color="#176095"/><stop offset="1" stop-color="#243c62"/></linearGradient></defs></svg>